<?xml version="1.0" encoding="UTF-8"?>
<svg version="1.1" xmlns="http://www.w3.org/2000/svg" width="100" height="100">
<path d="M0 0 C7.25451601 -0.25015572 7.25451601 -0.25015572 10.921875 0.98046875 C15.05978715 2.35102087 18.92219401 2.25061933 23.25 2.3125 C29.97107189 2.52179793 34.5793304 3.20967998 40.3828125 6.79296875 C45.20876714 9.01867022 50.51210277 9.1586856 55.75390625 9.640625 C59 10 59 10 60 11 C59.66928182 16.29149095 58.162861 20.18727331 55.7421875 24.88671875 C54.57276603 28.21649253 55.61900984 30.19553516 57.0859375 33.29296875 C58.27949967 36.82774902 57.97082011 39.61222477 57.625 43.3125 C57.51414062 44.56675781 57.40328125 45.82101563 57.2890625 47.11328125 C57.19367188 48.06589844 57.09828125 49.01851562 57 50 C57.72574219 49.98324219 58.45148438 49.96648438 59.19921875 49.94921875 C63.75209829 51.65734231 64.83946261 55.57424497 66.8125 59.8125 C67.21919922 60.63298828 67.62589844 61.45347656 68.04492188 62.29882812 C69.95415347 66.25526939 71 68.50456413 71 73 C68.69 73 66.38 73 64 73 C64 81.58 64 90.16 64 99 C61.38501229 100.30749386 59.45991219 100.12708893 56.53149414 100.12939453 C55.38592545 100.13254669 54.24035675 100.13569885 53.06007385 100.13894653 C51.81435104 100.1369223 50.56862823 100.13489807 49.28515625 100.1328125 C47.36418373 100.13424759 47.36418373 100.13424759 45.40440369 100.13571167 C42.68487347 100.1371885 39.96537602 100.13503773 37.24584961 100.13037109 C33.78979095 100.12472493 30.33381083 100.12792003 26.87775517 100.13394356 C23.55521629 100.13847247 20.23269735 100.13527807 16.91015625 100.1328125 C15.68265152 100.13483673 14.45514679 100.13686096 13.19044495 100.13894653 C7.70852477 100.12422694 2.22969205 100.04669486 -3.24438477 99.74169922 C-4.55271019 99.67388748 -4.55271019 99.67388748 -5.88746643 99.60470581 C-8 99 -8 99 -9.28303528 97.10250854 C-10.12860471 94.62286499 -10.2272462 92.63418805 -10.1953125 90.015625 C-10.18886719 89.08105469 -10.18242187 88.14648438 -10.17578125 87.18359375 C-10.15902344 86.21550781 -10.14226563 85.24742188 -10.125 84.25 C-10.11597656 83.26644531 -10.10695313 82.28289062 -10.09765625 81.26953125 C-10.07412785 78.84610593 -10.04125368 76.42317778 -10 74 C-12.31 74 -14.62 74 -17 74 C-17.44022683 68.51011244 -15.98479142 64.66126756 -13.8125 59.75 C-13.52052734 59.03070313 -13.22855469 58.31140625 -12.92773438 57.5703125 C-11.46149092 54.20268237 -10.65231862 52.39558679 -7.44921875 50.453125 C-5 50 -5 50 -2 51 C-1.97494385 50.33468262 -1.9498877 49.66936523 -1.92407227 48.98388672 C-1.80748864 45.94742513 -1.68504649 42.91122654 -1.5625 39.875 C-1.52318359 38.82828125 -1.48386719 37.7815625 -1.44335938 36.703125 C-1.11149013 28.63614958 -1.11149013 28.63614958 -0.46875 24.96875 C0.28327978 20.20589473 0.10286431 15.43766811 0.0625 10.625 C0.05798828 9.60277344 0.05347656 8.58054687 0.04882812 7.52734375 C0.037103 5.01816806 0.02069176 2.5091151 0 0 Z " fill="#71664A" transform="translate(23,0)"/>
<path d="M0 0 C7.2527307 -0.25009416 7.2527307 -0.25009416 10.90625 0.97265625 C15.83650506 2.60984953 20.85156635 2.39425186 26.01171875 2.47851562 C31.03157468 2.64211983 34.69944381 3.12416795 39 6 C40.390625 7.83203125 40.390625 7.83203125 41.25 9.8125 C41.56066406 10.51890625 41.87132812 11.2253125 42.19140625 11.953125 C44.17932601 16.98534699 45.35336519 21.61137659 46 27 C46.33773437 26.37351562 46.67546875 25.74703125 47.0234375 25.1015625 C47.69246094 23.87566406 47.69246094 23.87566406 48.375 22.625 C48.81585938 21.81289063 49.25671875 21.00078125 49.7109375 20.1640625 C51 18 51 18 53 16 C54.32 16 55.64 16 57 16 C55.91220643 18.84499856 54.76598752 21.40952184 53.25 24.0625 C51.67720462 26.86671478 51.67720462 26.86671478 52.75 29.3125 C53.89280472 30.94190849 53.89280472 30.94190849 55 32 C55.26293056 36.03160191 55.29404844 37.55892734 53 41 C46.875 41.4375 46.875 41.4375 44 40 C43.93941406 40.78246094 43.87882812 41.56492188 43.81640625 42.37109375 C43.73261719 43.38300781 43.64882812 44.39492188 43.5625 45.4375 C43.48128906 46.44683594 43.40007812 47.45617188 43.31640625 48.49609375 C43 51 43 51 42 52 C37.79799588 52.24284787 33.59008323 52.22855021 29.38183594 52.24023438 C27.27237885 52.24989749 25.16391386 52.2808863 23.0546875 52.3125 C21.70833912 52.31903431 20.36198376 52.3242831 19.015625 52.328125 C17.17919434 52.34214355 17.17919434 52.34214355 15.30566406 52.35644531 C11.75765445 51.97386821 9.87149603 51.06078469 7 49 C6.67 49.66 6.34 50.32 6 51 C4.02 51 2.04 51 0 51 C0.495 42.09 0.495 42.09 1 33 C0.34 33 -0.32 33 -1 33 C-0.9278125 32.46117187 -0.855625 31.92234375 -0.78125 31.3671875 C0.39441506 20.94948876 0.09002848 10.46684969 0 0 Z " fill="#ABCFE1" transform="translate(23,0)"/>
<path d="M0 0 C12.87 0 25.74 0 39 0 C39.10112759 15.3713941 38.7601133 30.64813722 38 46 C29.36099524 46.14181677 20.85710092 45.72050392 12.25 45 C11.0640625 44.90460938 9.878125 44.80921875 8.65625 44.7109375 C5.77045904 44.47821242 2.88509508 44.24117291 0 44 C-1.4410404 39.6768788 -1.14366345 35.52899796 -1.125 31 C-1.12886719 30.1234375 -1.13273438 29.246875 -1.13671875 28.34375 C-1.12338629 18.85103645 -0.50100719 9.51913662 0 0 Z " fill="#D8C284" transform="translate(16,53)"/>
<path d="M0 0 C2 3 2 3 6 13 C13.26 13.33 20.52 13.66 28 14 C28 22.25 28 30.5 28 39 C18.1 39.33 8.2 39.66 -2 40 C-1.87962507 35.42831395 -1.75676234 30.85683017 -1.62768555 26.28540039 C-1.58457755 24.73270536 -1.54288732 23.17997026 -1.50268555 21.62719727 C-1.4443931 19.38545697 -1.38087422 17.14391396 -1.31640625 14.90234375 C-1.29133751 13.87378517 -1.29133751 13.87378517 -1.26576233 12.82444763 C-1.1341888 8.46956636 -0.68585716 4.29331937 0 0 Z " fill="#D2BA7D" transform="translate(57,59)"/>
<path d="M0 0 C23.57933562 -1.89665688 23.57933562 -1.89665688 28.94970703 1.08105469 C33.47766609 5.65269181 33.99227131 11.95362787 35 18 C25.43 18 15.86 18 6 18 C5.01 15.40125 4.02 12.8025 3 10.125 C2.68675781 9.30789551 2.37351563 8.49079102 2.05078125 7.64892578 C0 2.22222222 0 2.22222222 0 0 Z " fill="#D9C384" transform="translate(57,53)"/>
<path d="M0 0 C0.33 0 0.66 0 1 0 C1 1.65 1 3.3 1 5 C-1.31 5 -3.62 5 -6 5 C-5.67 19.85 -5.34 34.7 -5 50 C-0.38 50 4.24 50 9 50 C11.79781173 50.25452872 14.59559114 50.50951207 17.39257812 50.77294922 C26.15894043 51.32470321 34.97011927 51.09979831 43.75 51.0625 C45.81510308 51.05747502 47.88020735 51.05291388 49.9453125 51.04882812 C54.9635953 51.03875934 59.98171106 51.01917003 65 51 C65 42.42 65 33.84 65 25 C67.31 25 69.62 25 72 25 C71.01 23.515 71.01 23.515 70 22 C70.375 19.8125 70.375 19.8125 71 18 C72.76462683 21.08809695 73 22.23312136 73 26 C70.69 26 68.38 26 66 26 C66 34.58 66 43.16 66 52 C63.38501229 53.30749386 61.45991219 53.12708893 58.53149414 53.12939453 C57.38592545 53.13254669 56.24035675 53.13569885 55.06007385 53.13894653 C53.81435104 53.1369223 52.56862823 53.13489807 51.28515625 53.1328125 C49.36418373 53.13424759 49.36418373 53.13424759 47.40440369 53.13571167 C44.68487347 53.1371885 41.96537602 53.13503773 39.24584961 53.13037109 C35.78979095 53.12472493 32.33381083 53.12792003 28.87775517 53.13394356 C25.55521629 53.13847247 22.23269735 53.13527807 18.91015625 53.1328125 C17.68265152 53.13483673 16.45514679 53.13686096 15.19044495 53.13894653 C9.70852477 53.12422694 4.22969205 53.04669486 -1.24438477 52.74169922 C-2.11660172 52.69649139 -2.98881866 52.65128357 -3.88746643 52.60470581 C-6 52 -6 52 -7.28303528 50.10250854 C-8.12860471 47.62286499 -8.2272462 45.63418805 -8.1953125 43.015625 C-8.18886719 42.08105469 -8.18242187 41.14648438 -8.17578125 40.18359375 C-8.15902344 39.21550781 -8.14226563 38.24742188 -8.125 37.25 C-8.11597656 36.26644531 -8.10695313 35.28289062 -8.09765625 34.26953125 C-8.07412785 31.84610593 -8.04125368 29.42317778 -8 27 C-10.31 27 -12.62 27 -15 27 C-15.44022683 21.51011244 -13.98479142 17.66126756 -11.8125 12.75 C-11.37454102 11.67105469 -11.37454102 11.67105469 -10.92773438 10.5703125 C-9.46149092 7.20268237 -8.65231862 5.39558679 -5.44921875 3.453125 C-3 3 -3 3 0 4 C0 2.68 0 1.36 0 0 Z " fill="#231C14" transform="translate(21,47)"/>
<path d="M0 0 C0.33 0 0.66 0 1 0 C1.66 2.31 2.32 4.62 3 7 C4.62414378 7.19477739 6.24936423 7.38059458 7.875 7.5625 C8.77992187 7.66691406 9.68484375 7.77132812 10.6171875 7.87890625 C13.01653057 8.19674852 13.01653057 8.19674852 15 7 C15.1953125 9.05078125 15.390625 11.1015625 15.5859375 13.15234375 C15.72257812 13.76207031 15.85921875 14.37179688 16 15 C16.66 15.33 17.32 15.66 18 16 C17.67 17.32 17.34 18.64 17 20 C13.75017 20.08728882 10.5006425 20.14048658 7.25 20.1875 C5.86941406 20.22520508 5.86941406 20.22520508 4.4609375 20.26367188 C3.57148437 20.27333984 2.68203125 20.28300781 1.765625 20.29296875 C0.94868164 20.3086792 0.13173828 20.32438965 -0.70996094 20.34057617 C-3.51240627 19.92379459 -4.88847021 18.83804852 -7 17 C-6.7525 15.9790625 -6.7525 15.9790625 -6.5 14.9375 C-5.92910941 11.5835178 -5.93340977 8.39610195 -6 5 C-5.67 5 -5.34 5 -5 5 C-4.67 6.98 -4.34 8.96 -4 11 C-3.01 11 -2.02 11 -1 11 C-1.01160156 10.28972656 -1.02320313 9.57945313 -1.03515625 8.84765625 C-1.04869141 7.46900391 -1.04869141 7.46900391 -1.0625 6.0625 C-1.07410156 5.14597656 -1.08570313 4.22945312 -1.09765625 3.28515625 C-1 1 -1 1 0 0 Z " fill="#F8E5D7" transform="translate(36,31)"/>
<path d="M0 0 C8 0 8 0 10.90625 0.97265625 C15.83650506 2.60984953 20.85156635 2.39425186 26.01171875 2.47851562 C31.07728239 2.64360951 34.55607447 3.29468819 39 6 C37.0625 6.5625 37.0625 6.5625 35 7 C34.505 6.505 34.505 6.505 34 6 C22.94407887 5.20564053 15.30992043 5.6249261 6.5 12.75 C5.675 13.4925 4.85 14.235 4 15 C3.67 14.01 3.34 13.02 3 12 C3.04125 13.299375 3.0825 14.59875 3.125 15.9375 C3.14055052 20.83591302 2.2492718 25.28176811 1 30 C0.67 30 0.34 30 0 30 C0 20.1 0 10.2 0 0 Z " fill="#3C3D47" transform="translate(23,0)"/>
<path d="M0 0 C3.3134921 0.47246708 6.62558794 0.95409125 9.9375 1.4375 C10.88302734 1.57220703 11.82855469 1.70691406 12.80273438 1.84570312 C14.15141602 2.04389648 14.15141602 2.04389648 15.52734375 2.24609375 C16.35999756 2.36654053 17.19265137 2.4869873 18.05053711 2.61108398 C20 3 20 3 21 4 C20.72442228 8.40924349 19.8161448 11.59289247 17.875 15.5625 C16.03908424 19.4192439 15.70748183 21.79931595 17 26 C15.35 24.68 13.7 23.36 12 22 C13.41292095 17.1725201 15.42974154 13.2837641 18 9 C14.77177904 9.95528988 13.26730932 10.6392507 11.234375 13.3828125 C10.49960938 14.74019531 10.49960938 14.74019531 9.75 16.125 C8.8514091 17.76006488 7.9397113 19.38821669 7 21 C6.67 21 6.34 21 6 21 C5.89042969 20.38253906 5.78085938 19.76507812 5.66796875 19.12890625 C4.44019485 12.57079689 3.00240807 6.00481613 0 0 Z " fill="#393F4B" transform="translate(62,7)"/>
<path d="M0 0 C2.9886295 2.76876454 3.94957382 5.15900097 5.1875 9.0625 C5.70376953 10.65771484 5.70376953 10.65771484 6.23046875 12.28515625 C7 15 7 15 7 17 C16.9 16.67 26.8 16.34 37 16 C37 16.66 37 17.32 37 18 C34.69 18 32.38 18 30 18 C30 26.58 30 35.16 30 44 C29.67 44 29.34 44 29 44 C29 35.75 29 27.5 29 19 C21.89393618 19.19755575 21.89393618 19.19755575 14.78979492 19.45043945 C12.11869021 19.48809486 9.63442775 19.45669366 7 19 C4.875 16.6875 4.875 16.6875 4 14 C3.4121875 12.3603125 3.4121875 12.3603125 2.8125 10.6875 C2.544375 9.800625 2.27625 8.91375 2 8 C0.91772035 11.54616971 0.82957803 14.89831713 0.75390625 18.59375 C0.72103516 19.87121094 0.68816406 21.14867188 0.65429688 22.46484375 C0.60685794 24.48579138 0.56237 26.50670664 0.52319336 28.52783203 C0.48339003 30.48749067 0.43130091 32.44688758 0.37890625 34.40625 C0.3538501 35.57478516 0.32879395 36.74332031 0.30297852 37.94726562 C0.01543397 40.84449122 -0.49186233 42.54715494 -2 45 C-2.25710247 29.8527088 -1.75587128 15.05032523 0 0 Z " fill="#7A6843" transform="translate(56,54)"/>
<path d="M0 0 C0.66 0.33 1.32 0.66 2 1 C1.73445313 1.61746094 1.46890625 2.23492188 1.1953125 2.87109375 C-1.1672068 8.53596667 -2.81889831 13.98924484 -4 20 C-4.18046875 20.66773437 -4.3609375 21.33546875 -4.546875 22.0234375 C-5.23170292 25.0107041 -5.05866113 27.94962143 -5 31 C-5.9590625 31.2165625 -5.9590625 31.2165625 -6.9375 31.4375 C-8.97545146 31.81007181 -8.97545146 31.81007181 -10 33 C-11 34 -12 35 -13 36 C-14.29825095 30.59942001 -13.55674018 26.05353206 -12.75 20.625 C-12.62753906 19.70460938 -12.50507813 18.78421875 -12.37890625 17.8359375 C-11.59961897 12.43493653 -10.57640434 7.83394675 -8 3 C-7.01 2.34 -6.02 1.68 -5 1 C-5.20496094 1.53367187 -5.40992188 2.06734375 -5.62109375 2.6171875 C-7.717157 8.41395572 -8.62810501 13.85732066 -9 20 C-7.39025028 16.32057208 -5.85812248 12.65474827 -4.5 8.875 C-3.32291009 5.67381368 -1.87817413 2.86197963 0 0 Z " fill="#A29E9E" transform="translate(41,11)"/>
<path d="M0 0 C0.33 0 0.66 0 1 0 C1 1.65 1 3.3 1 5 C-1.31 5 -3.62 5 -6 5 C-6 17.54 -6 30.08 -6 43 C-6.33 43 -6.66 43 -7 43 C-7.495 35.575 -7.495 35.575 -8 28 C-10.31 27.67 -12.62 27.34 -15 27 C-15.44022683 21.51011244 -13.98479142 17.66126756 -11.8125 12.75 C-11.37454102 11.67105469 -11.37454102 11.67105469 -10.92773438 10.5703125 C-9.46149092 7.20268237 -8.65231862 5.39558679 -5.44921875 3.453125 C-3 3 -3 3 0 4 C0 2.68 0 1.36 0 0 Z " fill="#292116" transform="translate(21,47)"/>
<path d="M0 0 C0.33 0 0.66 0 1 0 C1.33 3.3 1.66 6.6 2 10 C2.33 9.34 2.66 8.68 3 8 C3.66 8 4.32 8 5 8 C5.33 6.02 5.66 4.04 6 2 C6.33 2 6.66 2 7 2 C7 5.3 7 8.6 7 12 C6.34 12 5.68 12 5 12 C4.7525 12.7425 4.505 13.485 4.25 14.25 C2.79947709 17.4411504 1.93585472 19.04276352 -1 21 C-4.11775256 21.18339721 -7.02218585 20.96002889 -10 20 C-12 17 -12 17 -11.625 14.8125 C-11.41875 14.214375 -11.2125 13.61625 -11 13 C-9 16 -9 16 -9 19 C-8.01 19 -7.02 19 -6 19 C-5.9175 18.21625 -5.835 17.4325 -5.75 16.625 C-4.91480864 12.58824175 -3.52217787 9.0622713 -1.9375 5.26953125 C-1.22298902 3.53981925 -0.59181328 1.77543983 0 0 Z " fill="#92B1C1" transform="translate(49,19)"/>
<path d="M0 0 C0.33 0 0.66 0 1 0 C1.33 1.65 1.66 3.3 2 5 C2.33 5 2.66 5 3 5 C3.06058594 5.92941406 3.12117188 6.85882813 3.18359375 7.81640625 C3.79571552 16.94146885 3.79571552 16.94146885 5 26 C3.02 26 1.04 26 -1 26 C-0.505 17.09 -0.505 17.09 0 8 C-0.66 8 -1.32 8 -2 8 C-2.20086443 4.28400809 -2.1519437 3.22791555 0 0 Z " fill="#A5C1CB" transform="translate(24,25)"/>
<path d="M0 0 C0.33 0 0.66 0 1 0 C1 3.63 1 7.26 1 11 C-2.3 11 -5.6 11 -9 11 C-9 8.03 -9 5.06 -9 2 C-6.94921875 1.77213542 -4.8984375 1.54427083 -2.84765625 1.31640625 C-0.98859771 1.18113386 -0.98859771 1.18113386 0 0 Z " fill="#B3DDED" transform="translate(77,41)"/>
<path d="M0 0 C0.33 0 0.66 0 1 0 C1.06058594 1.00160156 1.12117187 2.00320312 1.18359375 3.03515625 C1.26808405 4.37761331 1.35272768 5.72006072 1.4375 7.0625 C1.51871094 8.37347656 1.59992187 9.68445313 1.68359375 11.03515625 C1.97898249 14.73663238 2.43265388 18.33370448 3 22 C3.87140625 21.98839844 4.7428125 21.97679688 5.640625 21.96484375 C22.72656733 21.83540479 22.72656733 21.83540479 29 23 C29.33 23.66 29.66 24.32 30 25 C13.88803421 25.16999729 13.88803421 25.16999729 6.5625 24.75 C5.71816406 24.70359375 4.87382812 24.6571875 4.00390625 24.609375 C2 24 2 24 0.88696289 22.25976562 C-0.10287802 19.73789183 -0.22993747 17.93512268 -0.1953125 15.234375 C-0.18886719 14.34492187 -0.18242187 13.45546875 -0.17578125 12.5390625 C-0.15902344 11.61867188 -0.14226563 10.69828125 -0.125 9.75 C-0.11597656 8.81414062 -0.10695313 7.87828125 -0.09765625 6.9140625 C-0.07413636 4.60911343 -0.04126853 2.3046884 0 0 Z " fill="#15110C" transform="translate(13,75)"/>
<path d="M0 0 C0 3.96 0 7.92 0 12 C-5.28 12 -10.56 12 -16 12 C-16 11.67 -16 11.34 -16 11 C-14.02 11 -12.04 11 -10 11 C-9.74347656 10.41734375 -9.48695312 9.8346875 -9.22265625 9.234375 C-7.89214174 6.80289161 -6.41556987 5.18264447 -4.4375 3.25 C-3.81746094 2.63640625 -3.19742188 2.0228125 -2.55859375 1.390625 C-1 0 -1 0 0 0 Z " fill="#DBC283" transform="translate(85,85)"/>
<path d="M0 0 C0.99 0 1.98 0 3 0 C3.9902653 1.70192385 4.96673206 3.41188011 5.9375 5.125 C6.48277344 6.07632813 7.02804688 7.02765625 7.58984375 8.0078125 C9 11 9 11 10 17 C5.05 17 0.1 17 -5 17 C-1 15 -1 15 3 13 C3.32987303 8.27181994 2.61137796 5.91706695 0 2 C0 1.34 0 0.68 0 0 Z " fill="#B69E68" transform="translate(82,54)"/>
<path d="M0 0 C1.32 0.33 2.64 0.66 4 1 C3.72202422 4.10555255 3.42526358 7.20902942 3.125 10.3125 C3.04636719 11.19357422 2.96773437 12.07464844 2.88671875 12.98242188 C2.80292969 13.82998047 2.71914063 14.67753906 2.6328125 15.55078125 C2.55949707 16.33106689 2.48618164 17.11135254 2.41064453 17.9152832 C2 20 2 20 0 23 C-0.33 20.36 -0.66 17.72 -1 15 C-1.33 15 -1.66 15 -2 15 C-2.3690205 4.44191344 -2.3690205 4.44191344 0 0 Z " fill="#AED2E3" transform="translate(27,16)"/>
<path d="M0 0 C2.73457631 4.10186446 4.20992603 8.4054768 6 13 C12.93 13.33 19.86 13.66 27 14 C27 14.33 27 14.66 27 15 C20.6357692 15.56660878 14.26106388 16.08167841 7.875 16.3125 C7.00617188 16.34988281 6.13734375 16.38726562 5.2421875 16.42578125 C3 16 3 16 1.2578125 13.98046875 C0.84273437 13.32691406 0.42765625 12.67335938 0 12 C-0.33 12 -0.66 12 -1 12 C-0.67 8.04 -0.34 4.08 0 0 Z " fill="#B39962" transform="translate(57,59)"/>
<path d="M0 0 C-0.63028587 1.68076231 -1.30959426 3.34302621 -2 5 C-2.268125 5.68578125 -2.53625 6.3715625 -2.8125 7.078125 C-3.73905721 9.2246492 -4.62154873 11.10904761 -6 13 C-9.25 14 -9.25 14 -12 14 C-10.3778345 7.511338 -7.23417991 0 0 0 Z " fill="#A97D86" transform="translate(80,16)"/>
<path d="M0 0 C0 2.94832677 -0.4397852 4.35578089 -1.4375 7.0625 C-3.29898775 12.90670572 -3.44864057 18.66761014 -3.53295898 24.75415039 C-3.64901894 29.08658928 -3.85015606 31.86691055 -7 35 C-8.29825095 29.59942001 -7.55674018 25.05353206 -6.75 19.625 C-6.62753906 18.70460938 -6.50507813 17.78421875 -6.37890625 16.8359375 C-5.48835577 10.66380548 -4.57460626 4.57460626 0 0 Z " fill="#83949F" transform="translate(35,12)"/>
<path d="M0 0 C3.70920229 0.08129882 7.41681099 0.19410601 11.125 0.3125 C12.17171875 0.33505859 13.2184375 0.35761719 14.296875 0.38085938 C19.97808708 0.57862309 24.17767801 0.88801712 29 4 C27.0625 4.5625 27.0625 4.5625 25 5 C24.67 4.67 24.34 4.34 24 4 C21.42657936 3.89908154 18.88571619 3.8613248 16.3125 3.875 C15.60416016 3.87113281 14.89582031 3.86726562 14.16601562 3.86328125 C10.00289267 3.87096938 6.10093088 4.18627198 2 5 C2.33 4.34 2.66 3.68 3 3 C2.01 2.01 1.02 1.02 0 0 Z " fill="#1F232A" transform="translate(33,2)"/>
<path d="M0 0 C0.33 0 0.66 0 1 0 C1 5.28 1 10.56 1 16 C-0.98 16 -2.96 16 -5 16 C-4.55643705 9.79011871 -3.08467498 5.39459439 0 0 Z " fill="#9E7E4E" transform="translate(13,56)"/>
<path d="M0 0 C0.33 0 0.66 0 1 0 C1 3.3 1 6.6 1 10 C0.34 10 -0.32 10 -1 10 C-1.2475 10.7425 -1.495 11.485 -1.75 12.25 C-3.20052291 15.4411504 -4.06414528 17.04276352 -7 19 C-10.11775256 19.18339721 -13.02218585 18.96002889 -16 18 C-18 15 -18 15 -17.625 12.8125 C-17.41875 12.214375 -17.2125 11.61625 -17 11 C-15 14 -15 14 -15 17 C-13.68528432 16.71848913 -12.37324233 16.42446661 -11.0625 16.125 C-10.33160156 15.96257813 -9.60070312 15.80015625 -8.84765625 15.6328125 C-6.79299706 15.17038477 -6.79299706 15.17038477 -6 13 C-5.01 13 -4.02 13 -3 13 C-2.01 8.71 -1.02 4.42 0 0 Z " fill="#9A9799" transform="translate(55,21)"/>
<path d="M0 0 C2.64 0 5.28 0 8 0 C8 0.66 8 1.32 8 2 C6.35 2 4.7 2 3 2 C3 2.66 3 3.32 3 4 C2.34 4 1.68 4 1 4 C1.18464366 8.34184202 1.18464366 8.34184202 3 12 C3.59754554 18.22559073 2.58869469 23.99984057 1 30 C0.67 30 0.34 30 0 30 C0 20.1 0 10.2 0 0 Z " fill="#313133" transform="translate(23,0)"/>
<path d="M0 0 C0.33 0 0.66 0 1 0 C1 4.29 1 8.58 1 13 C0.34 11.68 -0.32 10.36 -1 9 C-1.33 9.33 -1.66 9.66 -2 10 C-4.67058851 10.14115161 -7.32432238 10.04247107 -10 10 C-10 12.97 -10 15.94 -10 19 C-10.99 18.67 -11.98 18.34 -13 18 C-12.34 14.37 -11.68 10.74 -11 7 C-8.03 7 -5.06 7 -2 7 C-1.34 4.69 -0.68 2.38 0 0 Z " fill="#5E798B" transform="translate(78,33)"/>
<path d="M0 0 C0.99 0.33 1.98 0.66 3 1 C1.83805848 7.46712188 -0.1248748 13.09622349 -3 19 C-3.33 19 -3.66 19 -4 19 C-4.36182611 12.48713003 -3.29943477 7.11196911 -1 1 C-0.67 0.67 -0.34 0.34 0 0 Z " fill="#ABD3E6" transform="translate(35,14)"/>
<path d="M0 0 C0.99 0.33 1.98 0.66 3 1 C2.62702841 5.38241623 1.82139026 8.60260258 -0.125 12.5625 C-1.96091576 16.4192439 -2.29251817 18.79931595 -1 23 C-2.65 21.68 -4.3 20.36 -6 19 C-5.01188057 15.541582 -3.95865538 12.9386095 -1.9375 9.9375 C-0.0674592 7.10227685 0.72099677 5.34803878 1 2 C0.67 1.34 0.34 0.68 0 0 Z " fill="#272727" transform="translate(80,10)"/>
<path d="M0 0 C0.66 0 1.32 0 2 0 C2.11269443 6.1105424 1.89604368 11.95170514 1 18 C2.98 18 4.96 18 7 18 C7.33 17.01 7.66 16.02 8 15 C9.32 16.32 10.64 17.64 12 19 C8.04 19 4.08 19 0 19 C-1.31909709 12.5510809 -0.69508823 6.51244208 0 0 Z " fill="#545F63" transform="translate(22,33)"/>
<path d="M0 0 C-0.33 1.32 -0.66 2.64 -1 4 C1.64 4.33 4.28 4.66 7 5 C7 5.33 7 5.66 7 6 C-2.9 6 -12.8 6 -23 6 C-23 5.67 -23 5.34 -23 5 C-17.06 4.67 -11.12 4.34 -5 4 C-4.67 3.01 -4.34 2.02 -4 1 C-2 0 -2 0 0 0 Z " fill="#BDABA9" transform="translate(58,46)"/>
<path d="M0 0 C2.375 -0.125 2.375 -0.125 5 0 C7 2 7 2 7.125 4.625 C7.08375 5.40875 7.0425 6.1925 7 7 C5.00045254 7.04254356 2.99958364 7.04080783 1 7 C0 6 0 6 -0.0625 2.9375 C-0.041875 1.968125 -0.02125 0.99875 0 0 Z " fill="#F0F6F3" transform="translate(71,30)"/>
<path d="M0 0 C0.33 0 0.66 0 1 0 C1.33 1.65 1.66 3.3 2 5 C4.97 5.495 4.97 5.495 8 6 C7.34 7.32 6.68 8.64 6 10 C3.69 10 1.38 10 -1 10 C-1.33 8.35 -1.66 6.7 -2 5 C-1.34 5 -0.68 5 0 5 C0 3.35 0 1.7 0 0 Z " fill="#D2D7DD" transform="translate(70,31)"/>
<path d="M0 0 C1.98 0.495 1.98 0.495 4 1 C3.01 1.33 2.02 1.66 1 2 C1.33 4.97 1.66 7.94 2 11 C2.99 11 3.98 11 5 11 C5 10.34 5 9.68 5 9 C6.98 8.67 8.96 8.34 11 8 C10.67 8.99 10.34 9.98 10 11 C8.1875 11.625 8.1875 11.625 6 12 C4.88625 12.2784375 4.88625 12.2784375 3.75 12.5625 C3.1725 12.706875 2.595 12.85125 2 13 C0.17481425 10.66376225 -1.01010373 8.91101935 -0.9765625 5.88671875 C-0.71735287 3.91462383 -0.36455921 1.95536303 0 0 Z " fill="#C7B073" transform="translate(65,80)"/>
<path d="M0 0 C0.33 2.31 0.66 4.62 1 7 C0.34 6.67 -0.32 6.34 -1 6 C-1.66 7.32 -2.32 8.64 -3 10 C-4.33332095 7.3333581 -3.67102033 5.83319697 -3 3 C-3.99 3.495 -3.99 3.495 -5 4 C-5.20970559 8.14093698 -5.20970559 8.14093698 -4 12 C-4.99 11.67 -5.98 11.34 -7 11 C-7.43695709 5.66912345 -7.43695709 5.66912345 -7 3 C-4.59140121 0.97170628 -3.16955691 0 0 0 Z " fill="#B1A5A2" transform="translate(58,35)"/>
<path d="M0 0 C0.66 0.33 1.32 0.66 2 1 C1.67 6.28 1.34 11.56 1 17 C0.34 17 -0.32 17 -1 17 C-1.33 17.99 -1.66 18.98 -2 20 C-4.0625 20.6875 -4.0625 20.6875 -6 21 C-4.125 16.25 -4.125 16.25 -3 14 C-2.34 14 -1.68 14 -1 14 C-0.67 9.38 -0.34 4.76 0 0 Z " fill="#A8CADC" transform="translate(57,17)"/>
<path d="M0 0 C0.66 0 1.32 0 2 0 C2.92188461 2.76565382 3.11785222 4.38283702 3.09765625 7.23046875 C3.09282227 8.43413086 3.09282227 8.43413086 3.08789062 9.66210938 C3.07532227 10.91217773 3.07532227 10.91217773 3.0625 12.1875 C3.05798828 13.03248047 3.05347656 13.87746094 3.04882812 14.74804688 C3.03705403 16.83206155 3.0191189 18.91603977 3 21 C2.67 21 2.34 21 2 21 C1.67 18.03 1.34 15.06 1 12 C0.67 12 0.34 12 0 12 C0 8.04 0 4.08 0 0 Z " fill="#98B9CA" transform="translate(54,12)"/>
<path d="M0 0 C1.98 0 3.96 0 6 0 C5.01 0.33 4.02 0.66 3 1 C3 3.31 3 5.62 3 8 C5.31 8 7.62 8 10 8 C10 8.33 10 8.66 10 9 C6.7 9 3.4 9 0 9 C0 6.03 0 3.06 0 0 Z " fill="#90B3C7" transform="translate(68,43)"/>
<path d="M0 0 C0.66 0.33 1.32 0.66 2 1 C2 7.27 2 13.54 2 20 C0 16 0 16 0 14 C-0.66 13.67 -1.32 13.34 -2 13 C-1.34 13 -0.68 13 0 13 C0 8.71 0 4.42 0 0 Z " fill="#9DBDCD" transform="translate(58,21)"/>
<path d="M0 0 C0.66 0 1.32 0 2 0 C2 1.98 2 3.96 2 6 C2.66 4.35 3.32 2.7 4 1 C4.33 1 4.66 1 5 1 C5 3.31 5 5.62 5 8 C3.125 8.625 3.125 8.625 1 9 C-1 7 -1 7 -1.1875 3.9375 C-1 1 -1 1 0 0 Z " fill="#EBCDC4" transform="translate(53,38)"/>
<path d="M0 0 C0.33 0 0.66 0 1 0 C1.77040851 6.06696699 2.09706112 11.88514973 2 18 C1.01 18 0.02 18 -1 18 C-0.505 9.09 -0.505 9.09 0 0 Z " fill="#B1DAED" transform="translate(24,33)"/>
<path d="M0 0 C2.8125 0.625 2.8125 0.625 6 2 C9 6.8 9 6.8 9 10 C8.34 10 7.68 10 7 10 C2 4.52380952 2 4.52380952 2 2 C1.34 2 0.68 2 0 2 C0 1.34 0 0.68 0 0 Z " fill="#9BC1D3" transform="translate(57,6)"/>
<path d="M0 0 C0.99 0 1.98 0 3 0 C3 2.64 3 5.28 3 8 C1.35 8.33 -0.3 8.66 -2 9 C-1.34 6.03 -0.68 3.06 0 0 Z " fill="#B1C4CD" transform="translate(58,42)"/>
<path d="M0 0 C0.33 0 0.66 0 1 0 C1 3.3 1 6.6 1 10 C-1.31 10 -3.62 10 -6 10 C-6 9.67 -6 9.34 -6 9 C-4.35 9 -2.7 9 -1 9 C-1.20625 7.88625 -1.4125 6.7725 -1.625 5.625 C-1.74875 4.42875 -1.8725 3.2325 -2 2 C-1.34 1.34 -0.68 0.68 0 0 Z " fill="#B9E6F7" transform="translate(77,41)"/>
<path d="M0 0 C0.66 0 1.32 0 2 0 C1.125 4.75 1.125 4.75 0 7 C-2.0625 7.625 -2.0625 7.625 -4 8 C-3.67 6.02 -3.34 4.04 -3 2 C-2.34 2 -1.68 2 -1 2 C-0.67 1.34 -0.34 0.68 0 0 Z " fill="#95B9CB" transform="translate(52,27)"/>
<path d="M0 0 C1.5 1.3125 1.5 1.3125 3 3 C3 3.99 3 4.98 3 6 C5.64 5.67 8.28 5.34 11 5 C10.67 5.66 10.34 6.32 10 7 C8.72125 7.061875 7.4425 7.12375 6.125 7.1875 C5.40570313 7.22230469 4.68640625 7.25710937 3.9453125 7.29296875 C3.30335937 7.19628906 2.66140625 7.09960938 2 7 C0 4 0 4 0 0 Z " fill="#AD9F99" transform="translate(37,32)"/>
<path d="M0 0 C-1.9375 0.5625 -1.9375 0.5625 -4 1 C-4.33 0.67 -4.66 0.34 -5 0 C-7.01594582 -0.23427778 -9.038474 -0.41336124 -11.0625 -0.5625 C-12.16722656 -0.64628906 -13.27195313 -0.73007813 -14.41015625 -0.81640625 C-15.26480469 -0.87699219 -16.11945312 -0.93757812 -17 -1 C-17 -1.33 -17 -1.66 -17 -2 C-10.32477353 -3.11477625 -6.00914805 -3.26584133 0 0 Z " fill="#3E4F5A" transform="translate(62,6)"/>
<path d="M0 0 C1.98 0.495 1.98 0.495 4 1 C3.67 3.31 3.34 5.62 3 8 C2.34 6.68 1.68 5.36 1 4 C0.34 4.99 -0.32 5.98 -1 7 C-0.67 4.69 -0.34 2.38 0 0 Z " fill="#B5DBEC" transform="translate(27,16)"/>
<path d="M0 0 C0.66 0.33 1.32 0.66 2 1 C0.68 4.3 -0.64 7.6 -2 11 C-2.66 10.34 -3.32 9.68 -4 9 C-3.63910592 5.51135721 -1.8589578 2.90967307 0 0 Z " fill="#8AB0C1" transform="translate(41,11)"/>
<path d="M0 0 C0.99 0.495 0.99 0.495 2 1 C2.40729228 3.32156597 2.74438677 5.6568787 3 8 C2.01 8 1.02 8 0 8 C0 5.36 0 2.72 0 0 Z " fill="#91ADBD" transform="translate(26,43)"/>
<path d="M0 0 C1.68496298 0.96885372 3.35178756 1.96986723 5 3 C5 3.33 5 3.66 5 4 C1.37 4 -2.26 4 -6 4 C-6 3.67 -6 3.34 -6 3 C-4.02 3 -2.04 3 0 3 C0 2.01 0 1.02 0 0 Z " fill="#4C5F75" transform="translate(29,48)"/>
<path d="M0 0 C0.66 0 1.32 0 2 0 C1.67 2.31 1.34 4.62 1 7 C0.34 7 -0.32 7 -1 7 C-1.04254356 5.00045254 -1.04080783 2.99958364 -1 1 C-0.67 0.67 -0.34 0.34 0 0 Z " fill="#F6F7F5" transform="translate(53,38)"/>
<path d="M0 0 C0.66 0 1.32 0 2 0 C2 1.98 2 3.96 2 6 C0.35 6.33 -1.3 6.66 -3 7 C-1.125 2.25 -1.125 2.25 0 0 Z " fill="#F6E8DA" transform="translate(54,31)"/>
<path d="M0 0 C0.66 0 1.32 0 2 0 C2.6875 2.3125 2.6875 2.3125 3 5 C1.5625 6.8125 1.5625 6.8125 0 8 C-0.79953138 4.71303767 -1.09658936 3.28976808 0 0 Z " fill="#CFA198" transform="translate(28,39)"/>
</svg>
